<svg width="21" height="20" viewBox="0 0 21 20" fill="none" xmlns="http://www.w3.org/2000/svg">
<path fill-rule="evenodd" clip-rule="evenodd" d="M8.43249 16.7749C8.43249 16.0501 7.84505 15.4622 7.12027 15.4622C6.39571 15.4622 5.80804 16.0501 5.80804 16.7749C5.80804 17.4999 6.39571 18.0876 7.12027 18.0876C7.84505 18.0876 8.43249 17.4999 8.43249 16.7749Z" stroke="black" stroke-width="1.2" stroke-linejoin="round"/>
<path fill-rule="evenodd" clip-rule="evenodd" d="M15.0769 16.7749C15.0769 16.0501 14.4895 15.4622 13.7647 15.4622C13.0401 15.4622 12.4525 16.0501 12.4525 16.7749C12.4525 17.4999 13.0401 18.0876 13.7647 18.0876C14.4895 18.0876 15.0769 17.4999 15.0769 16.7749Z" stroke="black" stroke-width="1.2" stroke-linejoin="round"/>
<path d="M5.00842 11.2007V13.6937H16.3633" stroke="black" stroke-width="1.2"/>
<path fill-rule="evenodd" clip-rule="evenodd" d="M5.00842 11.2006V3.82251L19 3.82342L16.5553 11.2006H5.00842Z" stroke="black" stroke-width="1.2"/>
<path d="M1 2.37676C1.12737 2.02638 1.34471 1.72201 1.62212 1.48926C1.89952 1.25695 2.23675 1.09582 2.60413 1.03123C2.78023 1.0004 2.96335 0.991791 3.14987 1.00811C3.33684 1.02465 3.51543 1.06499 3.6836 1.12596C4.13302 1.28982 4.43784 1.56971 4.65519 1.91397C4.90086 2.30265 5.00851 2.76318 5.00851 3.22302" stroke="black" stroke-width="1.2"/>
</svg>
