<svg width="21" height="20" viewBox="0 0 21 20" fill="none" xmlns="http://www.w3.org/2000/svg">
<path d="M19.9805 12.2254C19.861 10.6988 19.2066 9.23965 18.0964 8.11915C18.0874 8.10998 18.0782 8.10104 18.0693 8.09186C17.1645 7.18826 16.0267 6.51739 14.754 6.17759C14.143 6.01457 13.5013 5.92767 12.8389 5.92767" stroke="black" stroke-width="1.14001"/>
<path d="M12.8389 14.5709H14.5417" stroke="black" stroke-width="1.14001"/>
<path d="M2.93949 14.5709H1V4.19287H12.8387V14.5709H6.56346" stroke="black" stroke-width="1.14001"/>
<path fill-rule="evenodd" clip-rule="evenodd" d="M6.56343 14.5711C6.56343 13.5714 5.75228 12.7609 4.75132 12.7609C3.75059 12.7609 2.93945 13.5714 2.93945 14.5711C2.93945 15.5708 3.75059 16.3813 4.75132 16.3813C5.75228 16.3813 6.56343 15.5708 6.56343 14.5711Z" stroke="black" stroke-width="1.14001"/>
<path fill-rule="evenodd" clip-rule="evenodd" d="M18.1655 14.5711C18.1655 13.5714 17.3543 12.7609 16.3534 12.7609C15.3526 12.7609 14.5415 13.5714 14.5415 14.5711C14.5415 15.5708 15.3526 16.3813 16.3534 16.3813C17.3543 16.3813 18.1655 15.5708 18.1655 14.5711Z" stroke="black" stroke-width="1.14001"/>
<path d="M18.1655 14.5705H19.7444L20.0001 12.7342C20.0001 12.564 19.9937 12.3941 19.9804 12.2252" stroke="black" stroke-width="1.14001"/>
</svg>
